<?xml version="1.0" encoding="UTF-8"?>
<svg id="svg17" xmlns="http://www.w3.org/2000/svg" viewBox="0 0 4409.24 4249.33">
  <defs>
    <style>
      .cls-1 {
        fill: #000;
        stroke-width: 0px;
      }
    </style>
  </defs>
  <g id="g15">
    <g id="text11">
      <path id="path23" class="cls-1" d="M0,4083.85v-973.66h188.15v973.66H0Z"/>
      <path id="path25" class="cls-1" d="M342.32,4083.85l-104.27-973.66h190.43l54.41,614.34,54.41-614.34h181.36l52.14,614.34,52.14-614.34h192.69l-106.55,973.66h-233.49l-48.74-469.26-46.47,469.26h-238.04Z"/>
      <path id="path27" class="cls-1" d="M1569.86,4092.91c-88.42,0-152.26-21.91-191.56-65.75-39.3-43.82-58.94-114.48-58.94-211.96v-95.21h191.56v121.28c0,48.36,15.49,72.55,46.47,72.55,17.37,0,29.47-4.91,36.27-14.74,6.8-10.58,10.2-27.96,10.2-52.14,0-31.74-3.78-57.8-11.33-78.21-7.56-21.15-17.37-38.54-29.47-52.14-11.33-14.35-32.12-36.27-62.34-65.75l-83.88-83.88c-64.99-63.47-97.48-133.76-97.48-210.82,0-83.12,18.89-146.22,56.67-189.29,38.54-43.82,94.46-65.75,167.76-65.75,87.66,0,150.76,23.43,189.29,70.27,38.54,46.1,57.8,118.64,57.8,217.62h-198.36l-1.13-66.88c0-12.85-3.78-23.04-11.33-30.6-6.8-7.56-16.63-11.33-29.47-11.33-15.11,0-26.45,4.15-34,12.47-7.56,8.31-11.33,19.65-11.33,34,0,31.74,18.13,64.6,54.41,98.61l113.35,108.81c26.45,25.69,48.36,50.25,65.75,73.68,17.37,22.67,31.36,49.88,41.93,81.61,10.58,30.98,15.87,68.01,15.87,111.09,0,95.97-17.76,168.89-53.27,218.77-34.76,49.12-92.57,73.68-173.43,73.68h0v.02Z"/>
      <path id="path29" class="cls-1" d="M2142.27,4033.97c-12.85,17.37-29.09,31.74-48.74,43.08-18.89,10.58-40.43,15.87-64.6,15.87-51.38,0-89.92-10.96-115.61-32.87-25.69-22.67-42.69-52.9-51.01-90.68-7.56-38.54-11.33-89.16-11.33-151.89v-328.71c0-76.32,12.85-136.02,38.54-179.09,25.69-43.08,70.27-64.6,133.76-64.6,50.63,0,90.31,17.76,119.02,53.27v-44.21h201.76v995.2h-201.76v-215.36h-.01ZM2094.67,3938.76c18.89,0,31.36-7.56,37.41-22.67,6.8-15.87,10.2-37.78,10.2-65.75v-363.84c0-57.43-15.49-86.14-46.47-86.14-18.89,0-30.98,7.93-36.27,23.8-5.29,15.11-7.93,36.65-7.93,64.6v352.51c0,31.74,2.65,55.92,7.93,72.55,5.29,16.63,17,24.93,35.14,24.93h-.01Z"/>
      <path id="path31" class="cls-1" d="M2584.33,4092.91c-61.97,0-104.66-18.52-128.09-55.54-22.67-37.02-34-92.19-34-165.48v-617.74h199.49v621.15c0,22.67,3.41,38.91,10.2,48.74,7.56,9.07,18.89,13.6,34,13.6,20.41,0,33.25-8.31,38.54-24.93,5.29-17.37,7.93-41.93,7.93-73.68v-6.8l1.13-578.07h197.23v829.7h-198.36v-88.42c-13.6,34.76-29.47,59.69-47.6,74.81-18.13,15.11-44.97,22.67-80.47,22.67h0Z"/>
      <path id="path33" class="cls-1" d="M3140.87,4092.91c-64.23,0-108.44-21.15-132.61-63.47-23.43-43.08-35.14-104.27-35.14-183.62,0-64.99,8.31-114.86,24.93-149.61,17.37-34.76,41.19-60.08,71.41-75.94,30.23-16.63,76.32-34.76,138.28-54.41l54.41-18.13v-85.01c0-21.91-4.54-38.54-13.6-49.88-8.31-12.09-18.52-18.13-30.6-18.13-10.58,0-20.02,4.91-28.34,14.74-7.56,9.82-11.33,23.04-11.33,39.67v49.88h-192.69v-27.21c0-81.61,18.89-139.8,56.67-174.56,38.54-34.76,100.88-52.14,187.02-52.14,68.77,0,124.68,18.13,167.76,54.41,43.08,35.52,64.6,86.14,64.6,151.89v632.48h-197.23v-98.61c-9.82,34-25.69,60.45-47.6,79.34-21.15,18.89-46.47,28.34-75.94,28.34h0l-.02-.04ZM3219.07,3938.76c15.11,0,25.69-6.04,31.74-18.13,6.8-12.85,10.2-28.34,10.2-46.47v-231.23c-29.47,11.33-51.38,25.69-65.75,43.08-13.6,17.37-20.41,41.56-20.41,72.55v106.55c0,49.12,14.74,73.68,44.21,73.68h0Z"/>
      <path id="path35" class="cls-1" d="M3537.59,3254.13h198.36v91.81c9.82-32.49,26.82-57.43,51.01-74.81,24.93-18.13,55.54-27.21,91.81-27.21v165.48c-27.96,0-58.94,4.15-92.94,12.47-33.25,7.56-49.88,16.63-49.88,27.21v634.75h-198.36v-829.7h0Z"/>
      <path id="path37" class="cls-1" d="M4159.86,4092.91c-85.38,0-146.59-23.43-183.62-70.27-37.02-46.86-55.54-116.75-55.54-209.69v-333.24c0-76.32,21.91-134.5,65.75-174.56,43.82-40.04,105.03-60.08,183.62-60.08,159.44,0,239.16,78.21,239.16,234.62v60.08c0,60.45-.76,109.57-2.26,147.35h-287.91v160.95c0,28.71,3.02,51.38,9.07,68.01,6.04,15.87,18.89,23.8,38.54,23.8,15.11,0,25.69-4.54,31.74-13.6,6.8-9.07,10.58-19.26,11.33-30.6,1.52-12.09,2.26-29.47,2.26-52.14v-80.47h197.23v47.6c0,96.72-18.89,168.13-56.67,214.23-37.02,45.34-101.25,68.01-192.69,68.01h-.01ZM4212.01,3588.51v-106.55c0-59.69-14.74-89.55-44.21-89.55-33.25,0-49.88,29.85-49.88,89.55v106.55h94.08,0Z"/>
    </g>
    <path id="rect13" class="cls-1" d="M887.21,0v2633.28h2633.28V0H887.21ZM1314.43,427.23h1778.82v1778.82h-1778.82V427.23Z"/>
  </g>
</svg>